<!-- animation_6x5_2235.svg -->
<!-- Generated using p5.plotSvg v.0.1.8: -->
<!-- A Plotter-Oriented SVG Exporter for p5.js -->
<!-- Sun Mar 15 2026 22:35:50 GMT-0400 (Eastern Daylight Time) -->
<!-- DPI: 96 -->
<svg xmlns="http://www.w3.org/2000/svg" xmlns:inkscape="http://www.inkscape.org/namespaces/inkscape" version="1.1" inkscape:version="1.4" width="11in" height="8.5in" viewBox="0 0 1056 816">
  <style>
      circle, ellipse, line, path, polygon, polyline, rect, quad, text {
        fill: none;
        stroke: black;
        stroke-width: 3;
        stroke-linecap: round;
        stroke-linejoin: round;
        vector-effect: non-scaling-stroke;
      }
    </style>
<g id="stroke-color-group-black" inkscape:groupmode="layer" inkscape:label="1_stroke-color-group-black"><line x1="72" y1="96" x2="72" y2="120" style="stroke:black;" transform="matrix(1 0 0 1 0 0)"/><line x1="60" y1="108" x2="84" y2="108" style="stroke:black;" transform="matrix(1 0 0 1 0 0)"/><line x1="224" y1="96" x2="224" y2="120" style="stroke:black;" transform="matrix(1 0 0 1 0 0)"/><line x1="212" y1="108" x2="236" y2="108" style="stroke:black;" transform="matrix(1 0 0 1 0 0)"/><line x1="376" y1="96" x2="376" y2="120" style="stroke:black;" transform="matrix(1 0 0 1 0 0)"/><line x1="364" y1="108" x2="388" y2="108" style="stroke:black;" transform="matrix(1 0 0 1 0 0)"/><line x1="528" y1="96" x2="528" y2="120" style="stroke:black;" transform="matrix(1 0 0 1 0 0)"/><line x1="516" y1="108" x2="540" y2="108" style="stroke:black;" transform="matrix(1 0 0 1 0 0)"/><line x1="680" y1="96" x2="680" y2="120" style="stroke:black;" transform="matrix(1 0 0 1 0 0)"/><line x1="668" y1="108" x2="692" y2="108" style="stroke:black;" transform="matrix(1 0 0 1 0 0)"/><line x1="832" y1="96" x2="832" y2="120" style="stroke:black;" transform="matrix(1 0 0 1 0 0)"/><line x1="820" y1="108" x2="844" y2="108" style="stroke:black;" transform="matrix(1 0 0 1 0 0)"/><line x1="984" y1="96" x2="984" y2="120" style="stroke:black;" transform="matrix(1 0 0 1 0 0)"/><line x1="972" y1="108" x2="996" y2="108" style="stroke:black;" transform="matrix(1 0 0 1 0 0)"/><line x1="72" y1="216" x2="72" y2="240" style="stroke:black;" transform="matrix(1 0 0 1 0 0)"/><line x1="60" y1="228" x2="84" y2="228" style="stroke:black;" transform="matrix(1 0 0 1 0 0)"/><line x1="224" y1="216" x2="224" y2="240" style="stroke:black;" transform="matrix(1 0 0 1 0 0)"/><line x1="212" y1="228" x2="236" y2="228" style="stroke:black;" transform="matrix(1 0 0 1 0 0)"/><line x1="376" y1="216" x2="376" y2="240" style="stroke:black;" transform="matrix(1 0 0 1 0 0)"/><line x1="364" y1="228" x2="388" y2="228" style="stroke:black;" transform="matrix(1 0 0 1 0 0)"/><line x1="528" y1="216" x2="528" y2="240" style="stroke:black;" transform="matrix(1 0 0 1 0 0)"/><line x1="516" y1="228" x2="540" y2="228" style="stroke:black;" transform="matrix(1 0 0 1 0 0)"/><line x1="680" y1="216" x2="680" y2="240" style="stroke:black;" transform="matrix(1 0 0 1 0 0)"/><line x1="668" y1="228" x2="692" y2="228" style="stroke:black;" transform="matrix(1 0 0 1 0 0)"/><line x1="832" y1="216" x2="832" y2="240" style="stroke:black;" transform="matrix(1 0 0 1 0 0)"/><line x1="820" y1="228" x2="844" y2="228" style="stroke:black;" transform="matrix(1 0 0 1 0 0)"/><line x1="984" y1="216" x2="984" y2="240" style="stroke:black;" transform="matrix(1 0 0 1 0 0)"/><line x1="972" y1="228" x2="996" y2="228" style="stroke:black;" transform="matrix(1 0 0 1 0 0)"/><line x1="72" y1="336" x2="72" y2="360" style="stroke:black;" transform="matrix(1 0 0 1 0 0)"/><line x1="60" y1="348" x2="84" y2="348" style="stroke:black;" transform="matrix(1 0 0 1 0 0)"/><line x1="224" y1="336" x2="224" y2="360" style="stroke:black;" transform="matrix(1 0 0 1 0 0)"/><line x1="212" y1="348" x2="236" y2="348" style="stroke:black;" transform="matrix(1 0 0 1 0 0)"/><line x1="376" y1="336" x2="376" y2="360" style="stroke:black;" transform="matrix(1 0 0 1 0 0)"/><line x1="364" y1="348" x2="388" y2="348" style="stroke:black;" transform="matrix(1 0 0 1 0 0)"/><line x1="528" y1="336" x2="528" y2="360" style="stroke:black;" transform="matrix(1 0 0 1 0 0)"/><line x1="516" y1="348" x2="540" y2="348" style="stroke:black;" transform="matrix(1 0 0 1 0 0)"/><line x1="680" y1="336" x2="680" y2="360" style="stroke:black;" transform="matrix(1 0 0 1 0 0)"/><line x1="668" y1="348" x2="692" y2="348" style="stroke:black;" transform="matrix(1 0 0 1 0 0)"/><line x1="832" y1="336" x2="832" y2="360" style="stroke:black;" transform="matrix(1 0 0 1 0 0)"/><line x1="820" y1="348" x2="844" y2="348" style="stroke:black;" transform="matrix(1 0 0 1 0 0)"/><line x1="984" y1="336" x2="984" y2="360" style="stroke:black;" transform="matrix(1 0 0 1 0 0)"/><line x1="972" y1="348" x2="996" y2="348" style="stroke:black;" transform="matrix(1 0 0 1 0 0)"/><line x1="72" y1="456" x2="72" y2="480" style="stroke:black;" transform="matrix(1 0 0 1 0 0)"/><line x1="60" y1="468" x2="84" y2="468" style="stroke:black;" transform="matrix(1 0 0 1 0 0)"/><line x1="224" y1="456" x2="224" y2="480" style="stroke:black;" transform="matrix(1 0 0 1 0 0)"/><line x1="212" y1="468" x2="236" y2="468" style="stroke:black;" transform="matrix(1 0 0 1 0 0)"/><line x1="376" y1="456" x2="376" y2="480" style="stroke:black;" transform="matrix(1 0 0 1 0 0)"/><line x1="364" y1="468" x2="388" y2="468" style="stroke:black;" transform="matrix(1 0 0 1 0 0)"/><line x1="528" y1="456" x2="528" y2="480" style="stroke:black;" transform="matrix(1 0 0 1 0 0)"/><line x1="516" y1="468" x2="540" y2="468" style="stroke:black;" transform="matrix(1 0 0 1 0 0)"/><line x1="680" y1="456" x2="680" y2="480" style="stroke:black;" transform="matrix(1 0 0 1 0 0)"/><line x1="668" y1="468" x2="692" y2="468" style="stroke:black;" transform="matrix(1 0 0 1 0 0)"/><line x1="832" y1="456" x2="832" y2="480" style="stroke:black;" transform="matrix(1 0 0 1 0 0)"/><line x1="820" y1="468" x2="844" y2="468" style="stroke:black;" transform="matrix(1 0 0 1 0 0)"/><line x1="984" y1="456" x2="984" y2="480" style="stroke:black;" transform="matrix(1 0 0 1 0 0)"/><line x1="972" y1="468" x2="996" y2="468" style="stroke:black;" transform="matrix(1 0 0 1 0 0)"/><line x1="72" y1="576" x2="72" y2="600" style="stroke:black;" transform="matrix(1 0 0 1 0 0)"/><line x1="60" y1="588" x2="84" y2="588" style="stroke:black;" transform="matrix(1 0 0 1 0 0)"/><line x1="224" y1="576" x2="224" y2="600" style="stroke:black;" transform="matrix(1 0 0 1 0 0)"/><line x1="212" y1="588" x2="236" y2="588" style="stroke:black;" transform="matrix(1 0 0 1 0 0)"/><line x1="376" y1="576" x2="376" y2="600" style="stroke:black;" transform="matrix(1 0 0 1 0 0)"/><line x1="364" y1="588" x2="388" y2="588" style="stroke:black;" transform="matrix(1 0 0 1 0 0)"/><line x1="528" y1="576" x2="528" y2="600" style="stroke:black;" transform="matrix(1 0 0 1 0 0)"/><line x1="516" y1="588" x2="540" y2="588" style="stroke:black;" transform="matrix(1 0 0 1 0 0)"/><line x1="680" y1="576" x2="680" y2="600" style="stroke:black;" transform="matrix(1 0 0 1 0 0)"/><line x1="668" y1="588" x2="692" y2="588" style="stroke:black;" transform="matrix(1 0 0 1 0 0)"/><line x1="832" y1="576" x2="832" y2="600" style="stroke:black;" transform="matrix(1 0 0 1 0 0)"/><line x1="820" y1="588" x2="844" y2="588" style="stroke:black;" transform="matrix(1 0 0 1 0 0)"/><line x1="984" y1="576" x2="984" y2="600" style="stroke:black;" transform="matrix(1 0 0 1 0 0)"/><line x1="972" y1="588" x2="996" y2="588" style="stroke:black;" transform="matrix(1 0 0 1 0 0)"/><line x1="72" y1="696" x2="72" y2="720" style="stroke:black;" transform="matrix(1 0 0 1 0 0)"/><line x1="60" y1="708" x2="84" y2="708" style="stroke:black;" transform="matrix(1 0 0 1 0 0)"/><line x1="224" y1="696" x2="224" y2="720" style="stroke:black;" transform="matrix(1 0 0 1 0 0)"/><line x1="212" y1="708" x2="236" y2="708" style="stroke:black;" transform="matrix(1 0 0 1 0 0)"/><line x1="376" y1="696" x2="376" y2="720" style="stroke:black;" transform="matrix(1 0 0 1 0 0)"/><line x1="364" y1="708" x2="388" y2="708" style="stroke:black;" transform="matrix(1 0 0 1 0 0)"/><line x1="528" y1="696" x2="528" y2="720" style="stroke:black;" transform="matrix(1 0 0 1 0 0)"/><line x1="516" y1="708" x2="540" y2="708" style="stroke:black;" transform="matrix(1 0 0 1 0 0)"/><line x1="680" y1="696" x2="680" y2="720" style="stroke:black;" transform="matrix(1 0 0 1 0 0)"/><line x1="668" y1="708" x2="692" y2="708" style="stroke:black;" transform="matrix(1 0 0 1 0 0)"/><line x1="832" y1="696" x2="832" y2="720" style="stroke:black;" transform="matrix(1 0 0 1 0 0)"/><line x1="820" y1="708" x2="844" y2="708" style="stroke:black;" transform="matrix(1 0 0 1 0 0)"/><line x1="984" y1="696" x2="984" y2="720" style="stroke:black;" transform="matrix(1 0 0 1 0 0)"/><line x1="972" y1="708" x2="996" y2="708" style="stroke:black;" transform="matrix(1 0 0 1 0 0)"/></g><g id="stroke-color-group--000000" inkscape:groupmode="layer" inkscape:label="2_stroke-color-group--000000"><rect x="0" y="0" width="128" height="96" style="stroke:#000000;" transform="matrix(1 0 0 1 84 120)"/><line x1="93.7787" y1="0" x2="128" y2="38.0066" style="stroke:#000000;" transform="matrix(1 0 0 1 84 120)"/><line x1="128" y1="64.1088" x2="98.1745" y2="90.9638" style="stroke:#000000;" transform="matrix(1 0 0 1 84 120)"/><line x1="98.1745" y1="90.9638" x2="38.2204" y2="24.3781" style="stroke:#000000;" transform="matrix(1 0 0 1 84 120)"/><line x1="38.2204" y1="24.3781" x2="65.2950" y2="0.0000" style="stroke:#000000;" transform="matrix(1 0 0 1 84 120)"/><rect x="0" y="0" width="128" height="96" style="stroke:#000000;" transform="matrix(1 0 0 1 236 120)"/><line x1="97.2995" y1="0" x2="128" y2="42.2556" style="stroke:#000000;" transform="matrix(1 0 0 1 236 120)"/><line x1="128" y1="65.8766" x2="92.6331" y2="91.5722" style="stroke:#000000;" transform="matrix(1 0 0 1 236 120)"/><line x1="92.6331" y1="91.5722" x2="39.9675" y2="19.0843" style="stroke:#000000;" transform="matrix(1 0 0 1 236 120)"/><line x1="39.9675" y1="19.0843" x2="66.2348" y2="0" style="stroke:#000000;" transform="matrix(1 0 0 1 236 120)"/><rect x="0" y="0" width="128" height="96" style="stroke:#000000;" transform="matrix(1 0 0 1 388 120)"/><line x1="100.6851" y1="0" x2="128" y2="47.3108" style="stroke:#000000;" transform="matrix(1 0 0 1 388 120)"/><line x1="128" y1="67.9603" x2="87.0585" y2="91.5979" style="stroke:#000000;" transform="matrix(1 0 0 1 388 120)"/><line x1="87.0585" y1="91.5979" x2="42.2585" y2="14.0021" style="stroke:#000000;" transform="matrix(1 0 0 1 388 120)"/><line x1="42.2585" y1="14.0021" x2="66.5108" y2="0" style="stroke:#000000;" transform="matrix(1 0 0 1 388 120)"/><rect x="0" y="0" width="128" height="96" style="stroke:#000000;" transform="matrix(1 0 0 1 540 120)"/><line x1="104.0287" y1="0" x2="128" y2="53.8403" style="stroke:#000000;" transform="matrix(1 0 0 1 540 120)"/><line x1="128" y1="70.3429" x2="81.5117" y2="91.0409" style="stroke:#000000;" transform="matrix(1 0 0 1 540 120)"/><line x1="81.5117" y1="91.0409" x2="45.0681" y2="9.1872" style="stroke:#000000;" transform="matrix(1 0 0 1 540 120)"/><line x1="45.0681" y1="9.1872" x2="65.7028" y2="0" style="stroke:#000000;" transform="matrix(1 0 0 1 540 120)"/><rect x="0" y="0" width="128" height="96" style="stroke:#000000;" transform="matrix(1 0 0 1 692 120)"/><line x1="107.4052" y1="0" x2="128" y2="63.3843" style="stroke:#000000;" transform="matrix(1 0 0 1 692 120)"/><line x1="128" y1="73.0286" x2="76.0535" y2="89.9070" style="stroke:#000000;" transform="matrix(1 0 0 1 692 120)"/><line x1="76.0535" y1="89.9070" x2="48.3656" y2="4.6924" style="stroke:#000000;" transform="matrix(1 0 0 1 692 120)"/><line x1="48.3656" y1="4.6924" x2="62.8072" y2="0" style="stroke:#000000;" transform="matrix(1 0 0 1 692 120)"/><rect x="0" y="0" width="128" height="96" style="stroke:#000000;" transform="matrix(1 0 0 1 844 120)"/><line x1="110.8812" y1="0" x2="127.0851" y2="76.2332" style="stroke:#000000;" transform="matrix(1 0 0 1 844 120)"/><line x1="127.0851" y1="76.2332" x2="70.7438" y2="88.2089" style="stroke:#000000;" transform="matrix(1 0 0 1 844 120)"/><line x1="70.7438" y1="88.2089" x2="52.1149" y2="0.5668" style="stroke:#000000;" transform="matrix(1 0 0 1 844 120)"/><line x1="52.1149" y1="0.5668" x2="54.7817" y2="0" style="stroke:#000000;" transform="matrix(1 0 0 1 844 120)"/><rect x="0" y="0" width="128" height="96" style="stroke:#000000;" transform="matrix(1 0 0 1 84 240)"/><line x1="114.5226" y1="0" x2="122.9251" y2="79.9442" style="stroke:#000000;" transform="matrix(1 0 0 1 84 240)"/><line x1="122.9251" y1="79.9442" x2="65.6406" y2="85.9650" style="stroke:#000000;" transform="matrix(1 0 0 1 84 240)"/><line x1="65.6406" y1="85.9650" x2="56.6054" y2="0" style="stroke:#000000;" transform="matrix(1 0 0 1 84 240)"/><rect x="0" y="0" width="128" height="96" style="stroke:#000000;" transform="matrix(1 0 0 1 236 240)"/><line x1="118.4000" y1="0" x2="118.4000" y2="83.2000" style="stroke:#000000;" transform="matrix(1 0 0 1 236 240)"/><line x1="118.4000" y1="83.2000" x2="60.8000" y2="83.2000" style="stroke:#000000;" transform="matrix(1 0 0 1 236 240)"/><line x1="60.8000" y1="83.2000" x2="60.8000" y2="0" style="stroke:#000000;" transform="matrix(1 0 0 1 236 240)"/><rect x="0" y="0" width="128" height="96" style="stroke:#000000;" transform="matrix(1 0 0 1 388 240)"/><line x1="122.5946" y1="0.0000" x2="113.5594" y2="85.9650" style="stroke:#000000;" transform="matrix(1 0 0 1 388 240)"/><line x1="113.5594" y1="85.9650" x2="56.2749" y2="79.9442" style="stroke:#000000;" transform="matrix(1 0 0 1 388 240)"/><line x1="56.2749" y1="79.9442" x2="64.6774" y2="0" style="stroke:#000000;" transform="matrix(1 0 0 1 388 240)"/><rect x="0" y="0" width="128" height="96" style="stroke:#000000;" transform="matrix(1 0 0 1 540 240)"/><line x1="127.0851" y1="0.5668" x2="108.4562" y2="88.2089" style="stroke:#000000;" transform="matrix(1 0 0 1 540 240)"/><line x1="108.4562" y1="88.2089" x2="52.1149" y2="76.2332" style="stroke:#000000;" transform="matrix(1 0 0 1 540 240)"/><line x1="52.1149" y1="76.2332" x2="68.3188" y2="0" style="stroke:#000000;" transform="matrix(1 0 0 1 540 240)"/><line x1="124.4183" y1="0" x2="127.0851" y2="0.5668" style="stroke:#000000;" transform="matrix(1 0 0 1 540 240)"/><rect x="0" y="0" width="128" height="96" style="stroke:#000000;" transform="matrix(1 0 0 1 692 240)"/><line x1="128" y1="13.4157" x2="103.1465" y2="89.9070" style="stroke:#000000;" transform="matrix(1 0 0 1 692 240)"/><line x1="103.1465" y1="89.9070" x2="48.3656" y2="72.1076" style="stroke:#000000;" transform="matrix(1 0 0 1 692 240)"/><line x1="48.3656" y1="72.1076" x2="71.7948" y2="0" style="stroke:#000000;" transform="matrix(1 0 0 1 692 240)"/><line x1="116.3928" y1="0" x2="128" y2="3.7714" style="stroke:#000000;" transform="matrix(1 0 0 1 692 240)"/><rect x="0" y="0" width="128" height="96" style="stroke:#000000;" transform="matrix(1 0 0 1 844 240)"/><line x1="128" y1="22.9597" x2="97.6883" y2="91.0409" style="stroke:#000000;" transform="matrix(1 0 0 1 844 240)"/><line x1="97.6883" y1="91.0409" x2="45.0681" y2="67.6128" style="stroke:#000000;" transform="matrix(1 0 0 1 844 240)"/><line x1="45.0681" y1="67.6128" x2="75.1713" y2="0" style="stroke:#000000;" transform="matrix(1 0 0 1 844 240)"/><line x1="113.4972" y1="0" x2="128" y2="6.4571" style="stroke:#000000;" transform="matrix(1 0 0 1 844 240)"/><rect x="0" y="0" width="128" height="96" style="stroke:#000000;" transform="matrix(1 0 0 1 84 360)"/><line x1="128" y1="29.4892" x2="92.1415" y2="91.5979" style="stroke:#000000;" transform="matrix(1 0 0 1 84 360)"/><line x1="92.1415" y1="91.5979" x2="42.2585" y2="62.7979" style="stroke:#000000;" transform="matrix(1 0 0 1 84 360)"/><line x1="42.2585" y1="62.7979" x2="78.5149" y2="0" style="stroke:#000000;" transform="matrix(1 0 0 1 84 360)"/><line x1="112.6892" y1="0" x2="128" y2="8.8397" style="stroke:#000000;" transform="matrix(1 0 0 1 84 360)"/><rect x="0" y="0" width="128" height="96" style="stroke:#000000;" transform="matrix(1 0 0 1 236 360)"/><line x1="128" y1="34.5444" x2="86.5669" y2="91.5722" style="stroke:#000000;" transform="matrix(1 0 0 1 236 360)"/><line x1="86.5669" y1="91.5722" x2="39.9675" y2="57.7157" style="stroke:#000000;" transform="matrix(1 0 0 1 236 360)"/><line x1="39.9675" y1="57.7157" x2="81.9005" y2="0" style="stroke:#000000;" transform="matrix(1 0 0 1 236 360)"/><line x1="112.9652" y1="0" x2="128" y2="10.9234" style="stroke:#000000;" transform="matrix(1 0 0 1 236 360)"/><rect x="0" y="0" width="128" height="96" style="stroke:#000000;" transform="matrix(1 0 0 1 388 360)"/><line x1="128" y1="38.7934" x2="81.0255" y2="90.9638" style="stroke:#000000;" transform="matrix(1 0 0 1 388 360)"/><line x1="81.0255" y1="90.9638" x2="38.2204" y2="52.4219" style="stroke:#000000;" transform="matrix(1 0 0 1 388 360)"/><line x1="38.2204" y1="52.4219" x2="85.4213" y2="0" style="stroke:#000000;" transform="matrix(1 0 0 1 388 360)"/><line x1="113.9050" y1="0" x2="128" y2="12.6912" style="stroke:#000000;" transform="matrix(1 0 0 1 388 360)"/><rect x="0" y="0" width="128" height="96" style="stroke:#000000;" transform="matrix(1 0 0 1 540 360)"/><line x1="128" y1="42.5787" x2="75.5781" y2="89.7796" style="stroke:#000000;" transform="matrix(1 0 0 1 540 360)"/><line x1="75.5781" y1="89.7796" x2="37.0362" y2="46.9745" style="stroke:#000000;" transform="matrix(1 0 0 1 540 360)"/><line x1="37.0362" y1="46.9745" x2="89.2066" y2="0" style="stroke:#000000;" transform="matrix(1 0 0 1 540 360)"/><line x1="115.3088" y1="0" x2="128" y2="14.0950" style="stroke:#000000;" transform="matrix(1 0 0 1 540 360)"/><rect x="0" y="0" width="128" height="96" style="stroke:#000000;" transform="matrix(1 0 0 1 692 360)"/><line x1="128" y1="46.0995" x2="70.2843" y2="88.0325" style="stroke:#000000;" transform="matrix(1 0 0 1 692 360)"/><line x1="70.2843" y1="88.0325" x2="36.4278" y2="41.4331" style="stroke:#000000;" transform="matrix(1 0 0 1 692 360)"/><line x1="36.4278" y1="41.4331" x2="93.4556" y2="0" style="stroke:#000000;" transform="matrix(1 0 0 1 692 360)"/><line x1="117.0766" y1="0" x2="128" y2="15.0348" style="stroke:#000000;" transform="matrix(1 0 0 1 692 360)"/><rect x="0" y="0" width="128" height="96" style="stroke:#000000;" transform="matrix(1 0 0 1 844 360)"/><line x1="128" y1="49.4851" x2="65.2021" y2="85.7415" style="stroke:#000000;" transform="matrix(1 0 0 1 844 360)"/><line x1="65.2021" y1="85.7415" x2="36.4021" y2="35.8585" style="stroke:#000000;" transform="matrix(1 0 0 1 844 360)"/><line x1="36.4021" y1="35.8585" x2="98.5108" y2="0" style="stroke:#000000;" transform="matrix(1 0 0 1 844 360)"/><line x1="119.1603" y1="0" x2="128" y2="15.3108" style="stroke:#000000;" transform="matrix(1 0 0 1 844 360)"/><rect x="0" y="0" width="128" height="96" style="stroke:#000000;" transform="matrix(1 0 0 1 84 480)"/><line x1="128" y1="52.8287" x2="60.3872" y2="82.9319" style="stroke:#000000;" transform="matrix(1 0 0 1 84 480)"/><line x1="60.3872" y1="82.9319" x2="36.9591" y2="30.3117" style="stroke:#000000;" transform="matrix(1 0 0 1 84 480)"/><line x1="36.9591" y1="30.3117" x2="105.0403" y2="0" style="stroke:#000000;" transform="matrix(1 0 0 1 84 480)"/><line x1="121.5429" y1="0" x2="128" y2="14.5028" style="stroke:#000000;" transform="matrix(1 0 0 1 84 480)"/><rect x="0" y="0" width="128" height="96" style="stroke:#000000;" transform="matrix(1 0 0 1 236 480)"/><line x1="128" y1="56.2052" x2="55.8924" y2="79.6344" style="stroke:#000000;" transform="matrix(1 0 0 1 236 480)"/><line x1="55.8924" y1="79.6344" x2="38.0930" y2="24.8535" style="stroke:#000000;" transform="matrix(1 0 0 1 236 480)"/><line x1="38.0930" y1="24.8535" x2="114.5843" y2="0" style="stroke:#000000;" transform="matrix(1 0 0 1 236 480)"/><line x1="124.2286" y1="0" x2="128" y2="11.6072" style="stroke:#000000;" transform="matrix(1 0 0 1 236 480)"/><rect x="0" y="0" width="128" height="96" style="stroke:#000000;" transform="matrix(1 0 0 1 388 480)"/><line x1="128" y1="59.6812" x2="51.7668" y2="75.8851" style="stroke:#000000;" transform="matrix(1 0 0 1 388 480)"/><line x1="51.7668" y1="75.8851" x2="39.7911" y2="19.5438" style="stroke:#000000;" transform="matrix(1 0 0 1 388 480)"/><line x1="39.7911" y1="19.5438" x2="127.4332" y2="0.9149" style="stroke:#000000;" transform="matrix(1 0 0 1 388 480)"/><line x1="127.4332" y1="0.9149" x2="128" y2="3.5817" style="stroke:#000000;" transform="matrix(1 0 0 1 388 480)"/><rect x="0" y="0" width="128" height="96" style="stroke:#000000;" transform="matrix(1 0 0 1 540 480)"/><line x1="128" y1="63.3226" x2="48.0558" y2="71.7251" style="stroke:#000000;" transform="matrix(1 0 0 1 540 480)"/><line x1="48.0558" y1="71.7251" x2="42.0350" y2="14.4406" style="stroke:#000000;" transform="matrix(1 0 0 1 540 480)"/><line x1="42.0350" y1="14.4406" x2="128" y2="5.4054" style="stroke:#000000;" transform="matrix(1 0 0 1 540 480)"/><rect x="0" y="0" width="128" height="96" style="stroke:#000000;" transform="matrix(1 0 0 1 692 480)"/><line x1="44.8000" y1="9.6000" x2="128" y2="9.6000" style="stroke:#000000;" transform="matrix(1 0 0 1 692 480)"/><line x1="128" y1="67.2000" x2="44.8000" y2="67.2000" style="stroke:#000000;" transform="matrix(1 0 0 1 692 480)"/><line x1="44.8000" y1="67.2000" x2="44.8000" y2="9.6000" style="stroke:#000000;" transform="matrix(1 0 0 1 692 480)"/><rect x="0" y="0" width="128" height="96" style="stroke:#000000;" transform="matrix(1 0 0 1 844 480)"/><line x1="48.0558" y1="5.0749" x2="128" y2="13.4774" style="stroke:#000000;" transform="matrix(1 0 0 1 844 480)"/><line x1="128" y1="71.3946" x2="42.0350" y2="62.3594" style="stroke:#000000;" transform="matrix(1 0 0 1 844 480)"/><line x1="42.0350" y1="62.3594" x2="48.0558" y2="5.0749" style="stroke:#000000;" transform="matrix(1 0 0 1 844 480)"/><rect x="0" y="0" width="128" height="96" style="stroke:#000000;" transform="matrix(1 0 0 1 84 600)"/><line x1="51.7668" y1="0.9149" x2="128" y2="17.1188" style="stroke:#000000;" transform="matrix(1 0 0 1 84 600)"/><line x1="128" y1="73.2183" x2="127.4332" y2="75.8851" style="stroke:#000000;" transform="matrix(1 0 0 1 84 600)"/><line x1="127.4332" y1="75.8851" x2="39.7911" y2="57.2562" style="stroke:#000000;" transform="matrix(1 0 0 1 84 600)"/><line x1="39.7911" y1="57.2562" x2="51.7668" y2="0.9149" style="stroke:#000000;" transform="matrix(1 0 0 1 84 600)"/><rect x="0" y="0" width="128" height="96" style="stroke:#000000;" transform="matrix(1 0 0 1 236 600)"/><line x1="64.6157" y1="0" x2="128" y2="20.5948" style="stroke:#000000;" transform="matrix(1 0 0 1 236 600)"/><line x1="128" y1="65.1928" x2="123.3076" y2="79.6344" style="stroke:#000000;" transform="matrix(1 0 0 1 236 600)"/><line x1="123.3076" y1="79.6344" x2="38.0930" y2="51.9465" style="stroke:#000000;" transform="matrix(1 0 0 1 236 600)"/><line x1="38.0930" y1="51.9465" x2="54.9714" y2="0" style="stroke:#000000;" transform="matrix(1 0 0 1 236 600)"/><rect x="0" y="0" width="128" height="96" style="stroke:#000000;" transform="matrix(1 0 0 1 388 600)"/><line x1="74.1597" y1="0" x2="128" y2="23.9713" style="stroke:#000000;" transform="matrix(1 0 0 1 388 600)"/><line x1="128" y1="62.2972" x2="118.8128" y2="82.9319" style="stroke:#000000;" transform="matrix(1 0 0 1 388 600)"/><line x1="118.8128" y1="82.9319" x2="36.9591" y2="46.4883" style="stroke:#000000;" transform="matrix(1 0 0 1 388 600)"/><line x1="36.9591" y1="46.4883" x2="57.6571" y2="0" style="stroke:#000000;" transform="matrix(1 0 0 1 388 600)"/><rect x="0" y="0" width="128" height="96" style="stroke:#000000;" transform="matrix(1 0 0 1 540 600)"/><line x1="80.6892" y1="0" x2="128" y2="27.3149" style="stroke:#000000;" transform="matrix(1 0 0 1 540 600)"/><line x1="128" y1="61.4892" x2="113.9979" y2="85.7415" style="stroke:#000000;" transform="matrix(1 0 0 1 540 600)"/><line x1="113.9979" y1="85.7415" x2="36.4021" y2="40.9415" style="stroke:#000000;" transform="matrix(1 0 0 1 540 600)"/><line x1="36.4021" y1="40.9415" x2="60.0397" y2="0" style="stroke:#000000;" transform="matrix(1 0 0 1 540 600)"/><rect x="0" y="0" width="128" height="96" style="stroke:#000000;" transform="matrix(1 0 0 1 692 600)"/><line x1="85.7444" y1="0" x2="128" y2="30.7005" style="stroke:#000000;" transform="matrix(1 0 0 1 692 600)"/><line x1="128" y1="61.7652" x2="108.9157" y2="88.0325" style="stroke:#000000;" transform="matrix(1 0 0 1 692 600)"/><line x1="108.9157" y1="88.0325" x2="36.4278" y2="35.3669" style="stroke:#000000;" transform="matrix(1 0 0 1 692 600)"/><line x1="36.4278" y1="35.3669" x2="62.1234" y2="0" style="stroke:#000000;" transform="matrix(1 0 0 1 692 600)"/><rect x="0" y="0" width="128" height="96" style="stroke:#000000;" transform="matrix(1 0 0 1 844 600)"/><line x1="89.9934" y1="0" x2="128" y2="34.2213" style="stroke:#000000;" transform="matrix(1 0 0 1 844 600)"/><line x1="128" y1="62.7050" x2="103.6219" y2="89.7796" style="stroke:#000000;" transform="matrix(1 0 0 1 844 600)"/><line x1="103.6219" y1="89.7796" x2="37.0362" y2="29.8255" style="stroke:#000000;" transform="matrix(1 0 0 1 844 600)"/><line x1="37.0362" y1="29.8255" x2="63.8912" y2="0" style="stroke:#000000;" transform="matrix(1 0 0 1 844 600)"/></g></svg>